<?xml version="1.0" standalone="no"?>
<!DOCTYPE svg PUBLIC "-//W3C//DTD SVG 20010904//EN"
 "http://www.w3.org/TR/2001/REC-SVG-20010904/DTD/svg10.dtd">
<svg version="1.0" xmlns="http://www.w3.org/2000/svg"
 width="600.000000pt" height="822.000000pt" viewBox="0 0 600.000000 822.000000"
 preserveAspectRatio="xMidYMid meet">
<g transform="translate(0.000000,822.000000) scale(0.100000,-0.100000)"
fill="#000000" stroke="none">
<path d="M1920 4045 l0 -905 1010 0 1010 0 0 74 c0 70 2 75 22 78 22 3 22 7
20 90 l-4 87 59 3 58 3 0 90 0 90 -55 1 c-30 0 -54 4 -52 7 1 4 2 32 2 62 l0
55 35 0 35 0 0 80 0 80 -57 0 -58 0 0 45 c0 29 4 45 13 45 8 0 12 19 12 60 l0
60 -45 0 -45 0 0 45 0 45 65 0 65 0 0 65 0 65 45 0 46 0 -3 83 -3 82 -48 -3
-48 -4 3 83 3 83 40 0 40 1 3 68 3 67 -96 0 -96 0 2 58 3 57 -992 3 -992 2 0
-905z m1560 0 l0 -875 -765 -2 -765 -3 0 878 0 877 765 0 765 0 0 -875z m395
830 l1 -45 -186 0 -185 0 0 45 0 45 185 0 185 0 0 -45z m-227 -146 l-2 -69
-71 0 -70 0 2 72 c1 40 2 73 2 73 1 0 33 -2 71 -3 l71 -4 -3 -69z m412 36 l0
-45 -194 0 -194 0 1 40 1 40 190 3 c105 1 192 3 194 5 1 1 2 -18 2 -43z m-240
-152 l0 -83 -115 0 -115 0 0 50 0 50 40 0 c37 0 46 7 41 34 -5 25 11 31 78 31
l71 0 0 -82z m156 -2 l2 -82 -65 3 -65 3 0 78 c1 42 1 78 1 80 1 1 29 1 63 1
l61 -2 3 -81z m-408 -43 l-3 -63 54 -1 53 -1 2 -51 1 -52 -85 0 -85 0 0 115 0
115 33 0 34 0 -4 -62z m252 -115 l0 -53 -60 0 -60 0 0 53 0 52 60 0 60 0 0
-52z m250 0 l0 -53 -113 0 -112 0 2 53 c1 28 2 52 3 52 0 0 50 0 110 1 l110 1
0 -54z m-470 -138 c0 -30 0 -58 0 -62 0 -5 -21 -8 -46 -8 l-46 0 -2 63 -1 62
48 0 47 0 0 -55z m132 -10 l3 -65 -52 0 -53 0 0 65 0 65 49 0 49 0 4 -65z
m253 15 l0 -50 -112 0 -113 0 0 50 0 50 113 0 112 0 0 -50z m-125 -125 l0 -45
-50 0 -50 0 0 45 0 45 50 0 50 0 0 -45z m-122 -89 l3 -106 -118 0 -118 0 2
107 c1 60 2 108 3 108 0 0 51 -1 112 -2 l113 -2 3 -105z m206 -16 l1 -30 -91
0 -91 0 0 30 0 29 86 3 c47 2 88 2 90 1 2 -2 5 -16 5 -33z m-24 -105 l0 -45
-79 0 -79 0 1 45 2 45 78 0 77 0 0 -45z m-380 -98 c0 -66 -3 -84 -14 -84 -11
0 -15 20 -18 84 -3 74 -1 83 15 83 15 0 17 -11 17 -83z m200 52 l0 -30 145 3
145 3 0 -55 0 -55 -230 0 -230 0 0 83 0 82 85 0 85 0 0 -31z m-110 -224 l0
-65 -60 0 -60 0 0 65 0 65 60 0 60 0 0 -65z m330 3 l0 -63 -150 0 -150 0 0 63
0 62 150 0 150 0 0 -62z m-320 -155 l0 -63 -64 0 -64 0 -4 61 c-1 33 -2 61 -1
62 1 1 31 2 67 2 l66 0 0 -62z m430 2 l0 -65 -200 0 -200 0 0 65 0 65 200 0
200 0 0 -65z m-285 -171 l0 -74 -72 0 -73 0 0 78 0 77 72 -3 73 -3 0 -75z
m-170 1 l0 -75 -55 0 -55 0 0 75 0 75 55 0 55 0 0 -75z m340 0 l0 -75 -72 0
-73 0 0 75 0 75 73 0 72 0 0 -75z m-45 -167 l0 -63 -201 2 -201 2 -1 61 -2 60
203 0 202 0 0 -62z"/>
<path d="M2726 4834 c-21 -21 -20 -47 2 -67 24 -22 45 -21 66 2 42 46 -24 109
-68 65z m50 -25 c10 -17 -13 -36 -27 -22 -12 12 -4 33 11 33 5 0 12 -5 16 -11z"/>
<path d="M3259 4815 c-39 -21 -56 -68 -40 -112 11 -29 10 -38 -3 -58 -22 -33
-56 -32 -90 4 -38 40 -73 45 -103 15 -14 -14 -23 -34 -22 -47 4 -31 -9 -64
-28 -71 -9 -4 -33 3 -55 14 -21 11 -50 20 -64 20 -29 0 -94 -58 -94 -83 0 -31
17 -26 41 11 29 44 51 49 108 24 48 -22 69 -20 100 9 14 14 21 32 21 59 0 61
27 69 80 25 52 -43 82 -44 122 -5 31 31 32 39 13 105 -4 13 2 31 16 49 20 25
27 28 68 23 25 -2 55 -8 66 -12 15 -6 13 -2 -8 18 -32 31 -85 36 -128 12z"/>
<path d="M2072 4798 c3 -7 22 -16 43 -19 38 -6 65 -30 65 -56 0 -8 -11 -31
-25 -51 -29 -43 -31 -69 -9 -100 25 -36 60 -45 100 -26 48 23 67 13 58 -30 -9
-50 28 -87 86 -84 46 1 57 -6 62 -41 5 -37 28 -39 28 -2 0 45 -31 71 -84 71
-53 0 -70 17 -61 60 13 59 -45 90 -100 54 -23 -15 -27 -15 -50 0 -30 20 -31
38 -6 80 36 59 28 117 -19 141 -36 19 -93 20 -88 3z"/>
<path d="M2207 4611 c-4 -17 -3 -21 5 -13 5 5 8 16 6 23 -3 8 -7 3 -11 -10z"/>
<path d="M3127 4453 c-3 -5 -2 -15 3 -22 10 -17 43 -6 38 12 -6 15 -34 22 -41
10z"/>
<path d="M3176 4392 c-3 -5 1 -9 9 -9 8 0 12 4 9 9 -3 4 -7 8 -9 8 -2 0 -6 -4
-9 -8z"/>
<path d="M2076 4309 c-21 -31 0 -79 35 -79 44 0 67 70 30 90 -30 15 -48 12
-65 -11z m54 -23 c0 -8 -5 -18 -11 -22 -14 -8 -33 11 -25 25 10 16 36 13 36
-3z"/>
<path d="M3291 4157 c2 -19 -4 -43 -14 -57 -55 -78 49 -154 106 -78 17 23 19
32 9 52 -6 14 -25 32 -42 41 -23 12 -30 22 -30 45 0 21 -5 30 -16 30 -11 0
-15 -8 -13 -33z m74 -87 c9 -15 -14 -50 -33 -50 -39 0 -57 51 -25 69 18 9 46
0 58 -19z"/>
<path d="M2409 4138 c-5 -18 -6 -38 -1 -34 7 8 12 36 6 36 -2 0 -4 -1 -5 -2z"/>
<path d="M2471 4118 c-33 -12 -50 -37 -51 -75 0 -62 -61 -92 -120 -58 -54 31
-71 7 -17 -25 35 -22 87 -26 118 -10 24 13 49 61 49 94 0 16 9 32 24 41 32 21
60 7 84 -42 35 -73 90 -74 123 -4 17 36 44 61 66 61 8 0 29 -16 49 -35 19 -19
46 -38 59 -41 31 -8 76 10 105 41 31 33 7 42 -31 11 -39 -33 -69 -33 -100 0
-65 70 -132 66 -168 -11 -27 -58 -53 -60 -80 -7 -30 59 -64 77 -110 60z"/>
<path d="M3428 4033 c7 -3 16 -2 19 1 4 3 -2 6 -13 5 -11 0 -14 -3 -6 -6z"/>
<path d="M2807 3999 c7 -7 15 -10 18 -7 3 3 -2 9 -12 12 -14 6 -15 5 -6 -5z"/>
<path d="M2098 3963 c7 -3 16 -2 19 1 4 3 -2 6 -13 5 -11 0 -14 -3 -6 -6z"/>
<path d="M2243 3935 c0 -8 4 -12 9 -9 5 3 6 10 3 15 -9 13 -12 11 -12 -6z"/>
<path d="M2092 3904 c-22 -15 -30 -57 -14 -80 9 -13 46 -34 62 -34 18 0 60 48
60 69 0 26 -37 61 -65 61 -11 0 -31 -7 -43 -16z m73 -35 c14 -42 -45 -66 -61
-24 -10 25 4 45 30 45 16 0 27 -7 31 -21z"/>
<path d="M2685 3910 c-8 -14 3 -30 21 -30 8 0 14 9 14 20 0 21 -24 28 -35 10z"/>
<path d="M2682 3668 c-30 -30 -3 -83 39 -76 29 4 43 29 35 61 -5 21 -12 27
-34 27 -15 0 -33 -5 -40 -12z m58 -29 c0 -12 -29 -24 -37 -16 -3 4 -3 13 0 21
6 16 37 11 37 -5z"/>
<path d="M3047 3649 c7 -7 15 -10 18 -7 3 3 -2 9 -12 12 -14 6 -15 5 -6 -5z"/>
<path d="M3016 3622 c-4 -7 -2 -21 4 -32 12 -23 50 -26 80 -8 29 18 32 6 10
-37 -14 -28 -17 -43 -9 -56 13 -26 47 -42 75 -36 18 3 24 0 24 -12 0 -24 20
-41 48 -41 22 0 24 -3 18 -35 -6 -29 -3 -39 18 -60 27 -27 56 -33 56 -12 0 7
-10 17 -22 22 -19 8 -23 18 -23 55 0 42 -2 46 -32 54 -21 6 -34 18 -38 33 -4
19 -12 23 -44 23 -55 0 -69 20 -42 63 19 30 19 35 5 55 -18 26 -41 28 -66 5
-19 -17 -20 -16 -37 6 -12 15 -21 20 -25 13z"/>
<path d="M2294 3547 c-22 -19 -26 -31 -26 -70 1 -53 -6 -57 -50 -25 -28 19
-33 20 -56 7 -39 -22 -48 -43 -35 -80 22 -58 -18 -99 -82 -83 -19 5 -25 2 -25
-10 0 -13 11 -16 55 -16 47 0 57 3 71 25 9 14 16 35 15 48 -1 12 -3 35 -4 51
-3 43 23 54 60 26 21 -15 38 -20 52 -15 23 7 37 45 27 71 -10 25 20 64 49 64
16 0 25 6 25 15 0 23 -45 18 -76 -8z"/>
<path d="M2129 3483 c-13 -16 -12 -17 4 -4 9 7 17 15 17 17 0 8 -8 3 -21 -13z"/>
<path d="M2846 3404 c-23 -23 -19 -51 9 -70 22 -14 30 -15 50 -4 27 15 34 57
13 78 -17 17 -54 15 -72 -4z m54 -28 c0 -20 -19 -31 -32 -18 -6 6 -7 15 -4 21
10 16 36 13 36 -3z"/>
<path d="M4131 4684 c0 -11 3 -14 6 -6 3 7 2 16 -1 19 -3 4 -6 -2 -5 -13z"/>
</g>
</svg>
